<svg height="512" viewBox="0 0 64 64" width="512" xmlns="http://www.w3.org/2000/svg"><g id="virus-cell-covid19-corona-coronavirus"><path d="m61 32a3 3 0 0 1 -5.66 1.39l-6.43.38a16.5 16.5 0 0 1 -1.39 5.15l5.39 3.55a2.971 2.971 0 0 1 3.11-.07 3 3 0 1 1 -4.5 2.47l-5.76-2.89a16.945 16.945 0 0 1 -3.78 3.78l2.89 5.76a3.006 3.006 0 1 1 -2.4 1.39l-3.55-5.39a16.5 16.5 0 0 1 -5.15 1.39l-.38 6.43a3 3 0 1 1 -2.78 0l-.38-6.43a16.5 16.5 0 0 1 -5.15-1.39l-3.55 5.39a2.971 2.971 0 0 1 .07 3.11 3 3 0 1 1 -2.47-4.5l2.89-5.76a16.945 16.945 0 0 1 -3.78-3.78l-5.76 2.89a3.006 3.006 0 1 1 -1.39-2.4l5.39-3.55a16.5 16.5 0 0 1 -1.39-5.15l-6.43-.38a3 3 0 1 1 0-2.78l6.43-.38a16.5 16.5 0 0 1 1.39-5.15l-5.39-3.55a2.971 2.971 0 0 1 -3.11.07 3 3 0 1 1 4.5-2.47l5.76 2.89a16.945 16.945 0 0 1 3.78-3.78l-2.89-5.76a3.006 3.006 0 1 1 2.4-1.39l3.55 5.39a16.5 16.5 0 0 1 5.15-1.39l.38-6.43a3 3 0 1 1 2.78 0l.38 6.43a16.5 16.5 0 0 1 5.15 1.39l3.55-5.39a2.971 2.971 0 0 1 -.07-3.11 3 3 0 1 1 2.47 4.5l-2.89 5.76a16.945 16.945 0 0 1 3.78 3.78l5.76-2.89a3.006 3.006 0 1 1 1.39 2.4l-5.39 3.55a16.5 16.5 0 0 1 1.39 5.15l6.43.38a3 3 0 0 1 5.66 1.39z" fill="#006838"/><path d="m58 29a2.988 2.988 0 0 0 -2.66 1.61l-6.43-.38a16.5 16.5 0 0 0 -1.39-5.15l5.39-3.55a2.971 2.971 0 0 0 3.11.07 3 3 0 1 0 -4.5-2.47l-5.76 2.89a17 17 0 0 0 -1.76-2.058 32.043 32.043 0 0 1 -24.628 23.4 16.912 16.912 0 0 0 2.647 2.4l-2.89 5.76a3.006 3.006 0 1 0 2.4 1.39l3.55-5.39a16.5 16.5 0 0 0 5.15 1.39l.38 6.43a3 3 0 1 0 2.78 0l.38-6.43a16.5 16.5 0 0 0 5.15-1.39l3.55 5.39a2.971 2.971 0 0 0 -.07 3.11 3 3 0 1 0 2.47-4.5l-2.89-5.76a16.945 16.945 0 0 0 3.78-3.78l5.76 2.89a3.006 3.006 0 1 0 1.39-2.4l-5.39-3.55a16.5 16.5 0 0 0 1.39-5.15l6.43-.38a3 3 0 1 0 2.661-4.392z" fill="#005e32"/><g fill="#cd2a00"><circle cx="32" cy="23" r="3"/><circle cx="32" cy="6" r="3"/><circle cx="19" cy="9.483" r="3"/><circle cx="9.483" cy="19" r="3"/><circle cx="6" cy="32" r="3"/><circle cx="9.483" cy="45" r="3"/></g><circle cx="19" cy="54.517" fill="#ab2300" r="3"/><circle cx="32" cy="58" fill="#ab2300" r="3"/><circle cx="45" cy="54.517" fill="#ab2300" r="3"/><circle cx="54.517" cy="45" fill="#ab2300" r="3"/><circle cx="58" cy="32" fill="#ab2300" r="3"/><circle cx="54.517" cy="19" fill="#ab2300" r="3"/><circle cx="45" cy="9.483" fill="#cd2a00" r="3"/><circle cx="27" cy="37" fill="#cd2a00" r="3"/><circle cx="40" cy="32" fill="#ab2300" r="4"/><circle cx="23" cy="29" fill="#ed1c24" r="2"/><circle cx="36" cy="41" fill="#ed1c24" r="2"/></g></svg>